<svg xmlns="http://www.w3.org/2000/svg" width="71" height="51" fill="none" style=""><rect id="backgroundrect" width="100%" height="100%" x="0" y="0" fill="none" stroke="none"/>




<g class="currentLayer" style=""><title>Layer 1</title><path d="M8.94759 40.8106H16.1639V17.5131H24.9727C23.5231 15.6008 22.2747 13.7362 21.8586 11.3282H0V17.5131H8.94759V40.8106Z" fill="#000000" id="svg_1" class="" fill-opacity="1"/><path d="M54.4219 40.8106H61.6382V17.5131H70.5857V11.3282H48.5745C48.2803 13.7366 47.3828 15.6998 45.7944 17.5131H54.4219V40.8106Z" fill="#000000" id="svg_2" class="" fill-opacity="1"/><path d="M59.6301 50.9267H60.2365V49.095L61.6822 46.6015H60.9962L60.2057 48.0227C60.071 48.2678 59.9423 48.5682 59.9423 48.5682H59.9301C59.9301 48.5682 59.8014 48.2619 59.6667 48.0227L58.8641 46.6015H58.1781L59.6301 49.095V50.9267ZM55.1038 48.6783V47.1283H55.8023C56.1394 47.1283 56.2803 47.165 56.3966 47.2263C56.6171 47.3488 56.7396 47.5755 56.7396 47.8943C56.7396 48.3782 56.4454 48.6786 55.9736 48.6786H55.1038V48.6783ZM54.4974 50.9267H55.1038V49.2054H56.029L56.9421 50.9267H57.6281L56.7091 49.248C56.6295 49.1071 56.5804 49.0521 56.5804 49.0521V49.04C57.0525 48.8866 57.3585 48.4211 57.3585 47.8697C57.3585 47.3 57.0708 46.8649 56.6295 46.6995C56.4641 46.6382 56.2741 46.6015 55.8206 46.6015H54.4974V50.9267ZM49.469 48.7333C49.469 47.7901 50.1858 47.0792 51.068 47.0792C51.9503 47.0792 52.6612 47.7898 52.6612 48.7333C52.6612 49.7076 51.9503 50.4428 51.068 50.4428C50.1858 50.4424 49.469 49.7073 49.469 48.7333ZM48.8439 48.7333C48.8439 50.0077 49.8178 51.0001 51.0677 51.0001C52.3175 51.0001 53.2856 50.0077 53.2856 48.7333C53.2856 47.4897 52.3175 46.5278 51.0677 46.5278C49.8182 46.5278 48.8439 47.4893 48.8439 48.7333ZM46.1621 50.9267H46.7685V47.1283H48.2513V46.6012H44.6797V47.1283H46.1621V50.9267ZM40.1905 48.7395C40.1905 50.0077 41.1032 51.0001 42.4022 51.0001C43.4866 51.0001 44.0809 50.314 44.0809 50.314L43.7562 49.879C43.7562 49.879 43.2353 50.4424 42.4205 50.4424C41.4587 50.4424 40.8156 49.6585 40.8156 48.733C40.8156 47.814 41.4465 47.0788 42.4146 47.0788C43.1623 47.0788 43.6645 47.5506 43.6645 47.5506L43.9646 47.0972C43.9646 47.0972 43.4316 46.5275 42.3901 46.5275C41.134 46.5278 40.1905 47.4835 40.1905 48.7395ZM37.6742 47.1955C37.6742 47.1955 37.7659 47.5876 37.8396 47.8081L38.3176 49.1805H37.0065L37.4904 47.8081C37.5638 47.5876 37.6621 47.1955 37.6621 47.1955H37.6742ZM38.9116 50.9267H39.5425L37.9867 46.6015H37.3495L35.7933 50.9267H36.4181L36.8469 49.6831H38.4765L38.9116 50.9267ZM32.9766 50.9267H33.583V49.0763H35.0963V48.5495H33.583V47.1283H35.3596V46.6012H32.9763V50.9267H32.9766ZM27.1455 50.3999V47.1283H27.9295C28.8976 47.1283 29.5406 47.6977 29.5406 48.7579C29.5406 49.8239 28.9038 50.3999 27.9295 50.3999H27.1455ZM26.5391 50.9267H27.9727C29.2959 50.9267 30.1661 50.1302 30.1661 48.7579C30.1661 47.3917 29.2959 46.6012 27.9727 46.6012H26.5391V50.9267ZM21.5719 50.9267H22.1783V48.1207C22.1783 47.8756 22.1354 47.4893 22.1354 47.4893H22.1475C22.1475 47.4893 22.3496 47.8815 22.5088 48.1207L24.4388 50.9267H25.0331V46.6015H24.4267V49.4138C24.4267 49.6526 24.4693 50.0385 24.4693 50.0385H24.4572C24.4572 50.0385 24.2547 49.6464 24.0955 49.4138L22.1717 46.6015H21.5712V50.9267H21.5719ZM18.7372 47.1955C18.7372 47.1955 18.8292 47.5876 18.9026 47.8081L19.3806 49.1805H18.0695L18.5534 47.8081C18.6267 47.5876 18.725 47.1955 18.725 47.1955H18.7372ZM19.9745 50.9267H20.6055L19.0497 46.6015H18.4125L16.8563 50.9267H17.4811L17.9099 49.6831H19.5395L19.9745 50.9267ZM13.7454 48.6783V47.1283H14.4439C14.781 47.1283 14.9219 47.165 15.0381 47.2263C15.2586 47.3488 15.3812 47.5755 15.3812 47.8943C15.3812 48.3782 15.087 48.6786 14.6152 48.6786H13.7454V48.6783ZM13.139 50.9267H13.7454V49.2054H14.6706L15.5833 50.9267H16.2697L15.3507 49.248C15.2711 49.1071 15.2219 49.0521 15.2219 49.0521V49.04C15.694 48.8866 16 48.4211 16 47.8697C16 47.3 15.7124 46.8649 15.2711 46.6995C15.1056 46.6382 14.916 46.6015 14.4622 46.6015H13.139V50.9267ZM9.53204 50.3999V48.9233H10.5001C10.9536 48.9233 11.2474 49.2238 11.2474 49.6647C11.2474 50.106 10.9716 50.3999 10.506 50.3999H9.53204ZM9.53204 48.4208V47.1283H10.4264C10.8432 47.1283 11.0757 47.3855 11.0757 47.7652C11.0757 48.1449 10.8307 48.4208 10.4385 48.4208H9.53204ZM8.92564 50.9267H10.4756C11.235 50.9267 11.8663 50.5099 11.8663 49.6955C11.8663 49.2116 11.6088 48.7824 11.1557 48.6478V48.6357C11.4866 48.4644 11.6946 48.1272 11.6946 47.7046C11.6946 47.0062 11.1678 46.6019 10.4385 46.6019H8.92529V50.9267H8.92564Z" fill="#000000" id="svg_3" class="" fill-opacity="1"/><path fill-rule="evenodd" clip-rule="evenodd" d="M32.2217 23.43L39.0106 31.4358C37.9989 32.3963 37.0633 33.1796 35.8702 33.9282C34.9094 34.5308 33.8364 34.9445 32.69 34.9445C31.949 34.9445 31.2235 34.8098 30.5254 34.5637C29.1219 34.0681 27.9001 33.1827 27.1898 31.8519C26.8177 31.1537 26.6561 30.3909 26.6561 29.6028C26.6561 28.8742 26.842 28.1857 27.1936 27.5478C27.8751 26.3132 28.964 25.3299 30.1332 24.5632C30.6652 24.2147 31.2204 23.8924 31.7981 23.6256L32.2217 23.43ZM32.7074 12.5784C31.9455 11.655 31.6157 10.5539 31.6157 9.36259C31.6157 8.32008 31.9954 7.42016 32.7679 6.71753C33.5252 6.0291 34.4359 5.69301 35.4583 5.69301C36.5213 5.69301 37.5178 5.97787 38.3356 6.67565C39.1805 7.39628 39.5315 8.38134 39.5315 9.47785C39.5315 10.789 39.1331 11.9755 38.1986 12.91C37.3675 13.7407 36.434 14.4589 35.4338 15.0743L34.9748 15.3567C34.222 14.4281 33.4681 13.5008 32.7074 12.5784ZM46.5283 40.8105H56.8393L48.7023 31.3721L49.0817 30.9696C51.3827 28.5291 52.9029 25.2845 53.3888 21.9701H46.1888C45.8558 23.7817 45.2017 24.9318 44.2239 26.4226L38.9324 20.0588L39.6243 19.7127C41.5186 18.7653 43.1813 17.4916 44.4897 15.8181C45.8018 14.1394 46.3203 12.1627 46.3203 10.0548C46.3203 8.60909 46.0645 7.1893 45.4304 5.88234C44.8413 4.66918 44.0408 3.61317 43.0169 2.73575C41.9734 1.84137 40.7845 1.17508 39.491 0.714049C38.1349 0.231555 36.7241 0 35.2849 0C33.8651 0 32.4737 0.227748 31.1301 0.687744C29.8311 1.13251 28.6332 1.78287 27.5733 2.65648C26.5305 3.51625 25.7001 4.556 25.074 5.75427C24.4122 7.02143 24.1346 8.40003 24.1346 9.82397C24.1346 11.2382 24.4406 12.584 25.1249 13.8234C25.8181 15.0788 26.6533 16.2466 27.6107 17.3144L28.1617 17.9288L27.4145 18.279C26.21 18.8436 25.0529 19.5033 23.9519 20.2495C22.8896 20.9694 21.9184 21.8088 21.0694 22.7714C20.2452 23.7055 19.5994 24.7581 19.1304 25.9124C18.6375 27.1263 18.426 28.4111 18.426 29.718C18.426 31.4268 18.7365 33.0965 19.4886 34.6392C20.1902 36.0784 21.1365 37.3413 22.34 38.3967C23.5645 39.4703 24.9674 40.2664 26.4972 40.8178C28.1202 41.4031 29.8127 41.6755 31.5368 41.6755C33.6042 41.6755 35.6657 41.3806 37.6053 40.6482C39.5606 39.9099 41.3507 38.7978 42.9719 37.4871L43.442 37.107L46.5283 40.8105Z" fill="#000000" id="svg_4" class="" fill-opacity="1"/></g></svg>